Coordinates
version=1
nRows=65
nColumns=12
inDegrees=yes

Units are S.I. units (second, meters, Newtons, ...)
Angles are in degrees

endheader
time	SC_y	SC_z	SC_x	AC_y	AC_z	AC_x	GH_y	GH_z	GH_yy	EL_x	PS_y
       0.0              -31.93           8.59           14.7          58.13          -15.8          5.548         -36.92         -11.22           1.12          9.114          79.96
  0.007953              -31.93          8.589           14.7          58.13          -15.8          5.548         -36.93         -11.21          1.103          9.118          79.97
   0.01591              -31.92          8.588           14.7          58.12          -15.8          5.549         -36.94          -11.2          1.084          9.124          79.98
   0.02386              -31.92          8.586           14.7          58.12          -15.8          5.549         -36.96         -11.19          1.065          9.129          79.99
   0.03181              -31.92          8.585          14.69          58.11         -15.79          5.549         -36.98         -11.18          1.043          9.135           80.0
   0.03977              -31.91          8.583          14.69          58.11         -15.79           5.55         -36.99         -11.17          1.021          9.141          80.01
   0.04772              -31.91          8.582          14.69           58.1         -15.79           5.55         -37.01         -11.16         0.9969          9.148          80.03
   0.05567               -31.9           8.58          14.69           58.1         -15.79          5.551         -37.03         -11.14         0.9713          9.155          80.04
   0.06363               -31.9          8.578          14.69          58.09         -15.78          5.551         -37.05         -11.13         0.9438          9.162          80.05
   0.07158              -31.89          8.576          14.69          58.08         -15.78          5.552         -37.07         -11.11         0.9143           9.17          80.07
   0.07953              -31.89          8.574          14.69          58.08         -15.78          5.552          -37.1         -11.09         0.8827          9.179          80.08
   0.08749              -31.88          8.571          14.69          58.07         -15.77          5.553         -37.13         -11.07         0.8486          9.188           80.1
   0.09544              -31.88          8.569          14.68          58.06         -15.77          5.553         -37.15         -11.06         0.8119          9.198          80.12
    0.1034              -31.87          8.566          14.68          58.05         -15.77          5.554         -37.18         -11.03         0.7722          9.209          80.14
    0.1113              -31.86          8.563          14.68          58.04         -15.76          5.555         -37.22         -11.01         0.7292          9.221          80.16
    0.1193              -31.85           8.56          14.68          58.03         -15.76          5.555         -37.25         -10.99         0.6827          9.234          80.19
    0.1273              -31.85          8.556          14.68          58.02         -15.75          5.556         -37.29         -10.96         0.6321          9.248          80.21
    0.1352              -31.84          8.552          14.67          58.01         -15.75          5.557         -37.33         -10.93         0.5769          9.263          80.24
    0.1432              -31.83          8.548          14.67           58.0         -15.74          5.558         -37.38          -10.9         0.5167          9.279          80.27
    0.1511              -31.82          8.543          14.67          57.98         -15.73          5.559         -37.43         -10.86         0.4508          9.297           80.3
    0.1591               -31.8          8.538          14.67          57.97         -15.72           5.56         -37.49         -10.82         0.3785          9.317          80.34
     0.167              -31.79          8.533          14.66          57.95         -15.72          5.562         -37.55         -10.78         0.2988          9.339          80.38
     0.175              -31.78          8.526          14.66          57.93         -15.71          5.563         -37.62         -10.73         0.2108          9.363          80.43
    0.1829              -31.76           8.52          14.65          57.91          -15.7          5.565         -37.69         -10.68         0.1133           9.39          80.48
    0.1909              -31.74          8.512          14.65          57.89         -15.68          5.566         -37.77         -10.62        0.00497           9.42          80.53
    0.1988              -31.72          8.504          14.64          57.86         -15.67          5.568         -37.87         -10.55         -0.116          9.453          80.59
    0.2068               -31.7          8.494          14.64          57.83         -15.66          5.571         -37.97         -10.48        -0.2514           9.49          80.66
    0.2147              -31.67          8.483          14.63           57.8         -15.64          5.573         -38.09          -10.4        -0.4038          9.532          80.74
    0.2227              -31.64          8.471          14.62          57.76         -15.62          5.576         -38.22         -10.31         -0.576          9.579          80.83
    0.2306              -31.61          8.457          14.61          57.72          -15.6          5.579         -38.37          -10.2        -0.7715          9.633          80.93
    0.2386              -31.57          8.442           14.6          57.67         -15.58          5.583         -38.54         -10.08        -0.9946          9.694          81.04
    0.2466              -31.53          8.424          14.59          57.61         -15.55          5.587         -38.74         -9.941         -1.251          9.765          81.17
    0.2545              -31.48          8.403          14.58          57.55         -15.52          5.592         -38.97         -9.781         -1.546          9.846          81.32
    0.2625              -31.42          8.379          14.57          57.47         -15.48          5.597         -39.23         -9.596          -1.89           9.94           81.5
    0.2704              -31.35          8.351          14.55          57.39         -15.44          5.604         -39.54         -9.379         -2.292          10.05           81.7
    0.2784              -31.27          8.317          14.53          57.28         -15.39          5.612         -39.91         -9.123         -2.766          10.18          81.94
    0.2863              -31.18          8.278           14.5          57.16         -15.33          5.621         -40.34         -8.818         -3.329          10.34          82.23
    0.2943              -31.06           8.23          14.47          57.01         -15.26          5.632         -40.86         -8.454         -4.004          10.52          82.57
    0.3022              -30.93          8.173          14.44          56.84         -15.17          5.645         -41.49         -8.013          -4.82          10.75          82.99
    0.3102              -30.76          8.103          14.39          56.62         -15.07          5.662         -42.25         -7.474         -5.818          11.02           83.5
    0.3181              -30.55          8.016          14.34          56.35         -14.94          5.682          -43.2         -6.809         -7.049          11.36          84.13
    0.3261              -30.29          7.909          14.27          56.02         -14.78          5.707         -44.38          -5.98         -8.584          11.78          84.91
     0.334              -29.97          7.773          14.19           55.6         -14.57          5.739         -45.87         -4.935         -10.52          12.31          85.89
     0.342              -29.55            7.6          14.08          55.06         -14.31          5.779         -47.76         -3.607         -12.98          12.99          87.15
    0.3499              -29.02          7.379          13.94          54.38         -13.98           5.83         -50.18         -1.907         -16.12          13.85          88.75
    0.3579              -28.34          7.095          13.76           53.5         -13.55          5.897         -53.29         0.2743         -20.16          14.96          90.81
    0.3658              -27.47          6.733          13.54          52.38         -13.01          5.981         -57.26          3.061         -25.32          16.38          93.43
    0.3738              -26.37          6.277          13.25          50.97         -12.32          6.087         -62.25          6.564         -31.81          18.16          96.74
    0.3818              -25.04          5.722           12.9          49.25         -11.48          6.217         -68.33          10.83         -39.71          20.33          100.8
    0.3897              -23.49          5.078           12.5          47.26         -10.51          6.367         -75.38          15.78         -48.87          22.84          105.4
    0.3977              -21.82          4.381          12.06           45.1         -9.464          6.529         -83.02          21.14         -58.79          25.57          110.5
    0.4056              -20.15          3.684          11.63          42.94         -8.415          6.692         -90.65           26.5         -68.71          28.29          115.5
    0.4136               -18.6           3.04          11.23          40.95         -7.445          6.842          -97.7          31.45         -77.87          30.81          120.2
    0.4215              -17.27          2.485          10.88          39.23         -6.609          6.971         -103.8          35.72         -85.78          32.98          124.2
    0.4295              -16.17          2.029          10.59          37.82         -5.923          7.077         -108.8          39.22         -92.26          34.76          127.5
    0.4374               -15.3          1.666          10.37           36.7         -5.377          7.162         -112.7          42.01         -97.42          36.18          130.2
    0.4454              -14.62          1.383          10.19          35.82          -4.95          7.228         -115.8          44.19         -101.5          37.29          132.2
    0.4533              -14.09          1.162          10.05          35.14         -4.617          7.279         -118.3          45.89         -104.6          38.15          133.8
    0.4613              -13.68         0.9889          9.943          34.61         -4.357           7.32         -120.2          47.22         -107.1          38.83          135.1
    0.4692              -13.35          0.853          9.858          34.19         -4.153          7.351         -121.6          48.26         -109.0          39.36          136.1
    0.4772              -13.09         0.7451           9.79          33.85          -3.99          7.376         -122.8          49.09         -110.5          39.78          136.9
    0.4851              -12.88         0.6586          9.736          33.58          -3.86          7.396         -123.8          49.76         -111.8          40.12          137.5
    0.4931              -12.72         0.5885          9.692          33.37         -3.754          7.413         -124.5           50.3         -112.8          40.39          138.0
    0.5011              -12.58         0.5311          9.656          33.19         -3.668          7.426         -125.2          50.74         -113.6          40.61          138.4
     0.509              -12.46         0.4837          9.627          33.04         -3.597          7.437         -125.7           51.1         -114.3           40.8          138.7
